<?xml version="1.0" standalone="no"?>
<!DOCTYPE svg PUBLIC "-//W3C//DTD SVG 20010904//EN"
 "http://www.w3.org/TR/2001/REC-SVG-20010904/DTD/svg10.dtd">
<svg version="1.0" xmlns="http://www.w3.org/2000/svg"
 width="1257.000000pt" height="1280.000000pt" viewBox="0 0 1257.000000 1280.000000"
 preserveAspectRatio="xMidYMid meet">

<g transform="translate(0.000000,1280.000000) scale(0.100000,-0.100000)"
fill="#000000" stroke="none">
<path d="M6547 12789 c-239 -23 -521 -105 -752 -219 -249 -122 -442 -264 -639
-471 l-116 -122 -132 66 c-304 150 -581 221 -913 234 -875 34 -1697 -461
-2080 -1252 -72 -148 -132 -315 -165 -457 l-22 -98 -42 -11 c-329 -85 -635
-241 -880 -448 -98 -82 -246 -232 -317 -321 -202 -251 -364 -589 -433 -903
-44 -198 -50 -263 -50 -492 0 -238 16 -365 69 -569 111 -427 373 -841 715
-1129 614 -517 1443 -666 2200 -395 124 44 332 148 445 222 l98 64 66 -18
c225 -62 503 -89 733 -71 138 11 336 44 428 71 30 9 39 7 60 -10 301 -240 592
-385 935 -465 178 -41 268 -50 510 -50 259 1 382 17 595 79 278 80 496 190
734 368 l119 90 46 -26 c108 -62 283 -146 371 -179 544 -203 1127 -190 1661
39 71 31 137 53 145 50 39 -15 273 -36 402 -36 601 0 1146 225 1572 650 608
605 814 1479 539 2293 -285 848 -1052 1441 -1953 1509 l-151 11 -130 127
c-263 257 -530 420 -864 530 -157 52 -357 94 -502 106 l-85 6 -34 67 c-52 101
-183 291 -267 387 -217 248 -424 409 -707 550 -373 185 -794 263 -1209 223z
m553 -408 c399 -81 734 -259 1017 -541 155 -153 295 -345 388 -530 15 -30 33
-58 39 -62 6 -4 35 -8 64 -8 138 0 407 -60 583 -130 279 -111 498 -258 712
-479 l107 -111 82 0 c147 0 413 -39 563 -81 376 -107 686 -283 949 -538 171
-167 290 -330 390 -535 123 -253 177 -487 177 -776 0 -321 -69 -585 -223 -864
-68 -122 -78 -137 -91 -129 -6 3 -7 1 -3 -5 4 -6 -8 -31 -25 -54 -34 -46 -34
-46 6 52 146 350 161 796 40 1180 -215 676 -856 1218 -1610 1359 -149 27 -189
32 -332 38 l-153 6 -82 80 c-46 44 -117 107 -158 140 -41 33 -79 66 -85 73
-21 26 -184 127 -305 188 -235 120 -487 191 -750 211 l-85 6 -48 95 c-27 51
-71 128 -98 169 -27 41 -48 79 -46 84 4 15 -142 187 -228 270 -303 290 -677
475 -1088 536 -130 20 -409 20 -547 1 -420 -60 -803 -252 -1113 -559 -57 -56
-127 -133 -156 -172 -60 -79 -60 -78 -7 24 105 204 238 382 402 541 203 197
425 337 684 433 144 54 266 82 475 111 17 2 125 3 240 1 165 -2 233 -8 315
-24z m-3084 -451 c299 -24 558 -105 830 -260 l41 -24 -70 -80 c-38 -45 -95
-118 -126 -162 l-57 -81 -89 45 c-263 132 -523 192 -827 192 -223 0 -402 -30
-600 -99 -311 -107 -624 -329 -832 -588 -32 -40 -62 -71 -66 -68 -5 3 -12 0
-16 -6 -5 -8 -3 -9 6 -4 8 5 11 3 8 -6 -3 -8 -11 -13 -17 -11 -7 1 -10 -2 -7
-7 5 -8 -29 -70 -50 -90 -8 -9 49 126 83 194 255 506 693 865 1218 1000 116
30 206 45 330 54 55 5 103 9 106 10 3 0 64 -4 135 -9z m3044 -685 c194 -20
328 -49 495 -107 625 -217 1114 -730 1290 -1356 50 -179 67 -310 67 -517 0
-255 -28 -426 -106 -652 -30 -83 -108 -263 -92 -210 52 172 70 312 70 542 1
259 -22 403 -100 635 -33 99 -139 316 -199 410 -245 382 -603 670 -1030 828
-132 49 -222 74 -381 104 -102 19 -154 22 -354 22 -203 0 -251 -3 -355 -22
-286 -54 -528 -147 -750 -287 -49 -31 -92 -57 -96 -58 -8 -2 -118 76 -119 84
0 9 126 119 215 185 290 218 645 358 1015 399 156 17 270 17 430 0z m-3380
-579 c229 -34 422 -93 625 -191 115 -56 335 -190 349 -214 3 -4 -16 -16 -42
-26 -26 -10 -95 -42 -155 -72 l-107 -53 -59 30 c-172 86 -381 152 -611 192
-101 18 -510 17 -610 -1 -402 -71 -728 -214 -1015 -444 -103 -83 -288 -274
-361 -373 -161 -218 -294 -500 -349 -744 l-15 -65 5 105 c16 343 155 723 372
1017 29 40 53 74 53 77 0 7 -189 -48 -295 -86 -281 -103 -513 -249 -731 -460
-61 -60 -114 -105 -119 -100 -4 4 -5 2 -2 -4 5 -9 -58 -104 -69 -104 -6 0 99
185 138 243 204 304 480 542 820 707 113 55 343 138 353 128 3 -3 -2 -25 -10
-49 -16 -43 -65 -226 -65 -241 0 -5 50 44 111 106 175 182 351 311 564 416
239 117 394 163 725 213 67 11 414 5 500 -7z"/>
<path d="M5219 5426 c-15 -9 -30 -23 -34 -33 -3 -10 -118 -441 -255 -958 -137
-517 -303 -1146 -369 -1397 -81 -305 -119 -466 -115 -483 8 -33 49 -65 83 -65
14 0 214 45 444 101 230 56 420 99 423 97 2 -3 -310 -578 -693 -1279 -482
-881 -698 -1285 -701 -1311 -3 -31 1 -43 26 -68 32 -32 63 -37 99 -17 12 7
915 855 2007 1885 1323 1248 1988 1882 1992 1899 9 35 -6 72 -38 96 -28 21
-29 21 -190 4 -90 -9 -401 -42 -692 -72 -291 -31 -530 -54 -531 -53 -1 2 180
341 402 753 246 455 407 765 410 787 5 32 1 41 -25 68 -30 30 -31 30 -144 30
-62 0 -363 4 -668 10 -1284 21 -1403 22 -1431 6z m1251 -187 c426 -6 776 -12
776 -13 1 0 -185 -346 -412 -769 -287 -532 -414 -777 -414 -798 0 -36 47 -89
79 -89 20 0 812 81 1125 115 76 9 141 14 142 12 2 -2 -537 -514 -1198 -1138
-661 -624 -1408 -1329 -1660 -1567 -252 -238 -458 -430 -458 -428 0 3 9 20 19
38 11 18 288 523 616 1123 647 1183 617 1122 559 1173 -42 37 6 45 -702 -126
-227 -55 -281 -66 -277 -53 2 9 115 435 250 946 373 1409 415 1569 420 1583 4
10 42 12 182 7 98 -3 527 -10 953 -16z"/>
</g>
</svg>
